<svg width="700" height="88" viewBox="0 0 700 88" fill="none" xmlns="http://www.w3.org/2000/svg">
<rect y="64" width="24" height="24" rx="12" fill="white"/>
<rect x="5.99951" y="74.1819" width="3.63636" height="3.63636" rx="1.81818" fill="#0D2B4C"/>
<rect x="14.3638" y="69.9999" width="3.63636" height="3.63636" rx="1.81818" fill="#0D2B4C"/>
<rect x="5.99951" y="69.9998" width="3.63636" height="3.63636" rx="1.81818" fill="#0D2B4C"/>
<rect x="14.3638" y="78.364" width="3.63636" height="3.63636" rx="1.81818" fill="#0D2B4C"/>
<rect x="10.1816" y="74.1819" width="3.63636" height="3.63636" rx="1.81818" fill="#0D2B4C"/>
<rect x="5.99951" y="78.364" width="3.63636" height="3.63636" rx="1.81818" fill="#0D2B4C"/>
<path d="M40.168 6.9V5.976H47.35V6.9H44.256V16H43.248V6.9H40.168ZM49.4935 15.986H48.5275V5.794H49.4935V10.4C49.9275 9.588 50.7535 9.042 51.8875 9.042C53.6655 9.042 54.4635 10.148 54.4635 11.856V16H53.4975V12.066C53.4975 10.484 52.7555 9.924 51.7055 9.924C50.2495 9.924 49.4935 11.002 49.4935 12.304V15.986ZM58.3349 16.168C56.8929 16.168 56.0389 15.356 56.0389 14.166C56.0389 12.92 56.9909 12.136 58.5729 12.01L60.8129 11.828V11.604C60.8129 10.274 60.0149 9.854 59.0209 9.854C57.8449 9.854 57.1449 10.386 57.1449 11.296H56.2629C56.2629 9.924 57.3829 9.042 59.0489 9.042C60.6169 9.042 61.7649 9.826 61.7649 11.618V16H60.9529L60.8269 14.81C60.4069 15.664 59.4829 16.168 58.3349 16.168ZM58.5589 15.384C59.9869 15.384 60.8129 14.39 60.8129 12.92V12.556L58.8109 12.71C57.5369 12.822 57.0189 13.382 57.0189 14.138C57.0189 14.964 57.6349 15.384 58.5589 15.384ZM64.6693 16H63.7033V9.224H64.5433L64.6833 10.4C65.1313 9.532 66.0273 9.042 67.0073 9.042C68.8693 9.042 69.6393 10.148 69.6393 11.856V16H68.6733V12.066C68.6733 10.484 67.9593 9.924 66.8393 9.924C65.4533 9.924 64.6693 10.932 64.6693 12.458V16ZM72.5726 16H71.6066V5.794H72.5726V12.724L75.9326 9.224H77.1506L74.5466 11.926L77.1646 16H76.0446L73.8886 12.612L72.5726 13.97V16ZM81.5154 18.954V18.156H82.2574C82.8454 18.156 83.4334 18.114 83.7694 17.204L84.0634 16.406L81.3194 9.224H82.3414L84.5254 15.132L86.6674 9.224H87.6614L84.5534 17.554C84.1614 18.618 83.5034 19.052 82.5374 19.052C82.1314 19.052 81.8234 19.024 81.5154 18.954ZM88.0828 12.612C88.0828 10.54 89.5388 9.042 91.5268 9.042C93.5148 9.042 94.9708 10.54 94.9708 12.612C94.9708 14.67 93.5148 16.168 91.5268 16.168C89.5388 16.168 88.0828 14.67 88.0828 12.612ZM89.0628 12.598C89.0628 14.194 90.0708 15.3 91.5268 15.3C92.9688 15.3 93.9908 14.194 93.9908 12.598C93.9908 11.03 92.9688 9.91 91.5268 9.91C90.0708 9.91 89.0628 11.03 89.0628 12.598ZM101.112 9.224H102.078V16H101.238L101.112 14.852C100.734 15.636 99.7958 16.168 98.7318 16.168C97.1358 16.168 96.2677 15.076 96.2677 13.424V9.21H97.2478V13.116C97.2478 14.726 97.9618 15.3 99.0397 15.3C100.342 15.3 101.112 14.432 101.112 12.822V9.224ZM105.322 12.99H104.622C104.51 11.996 104.454 10.148 104.454 8.342V5.976H105.504V8.342C105.504 10.162 105.434 11.996 105.322 12.99ZM104.986 16.196C104.496 16.196 104.104 15.79 104.104 15.314C104.104 14.838 104.496 14.446 104.986 14.446C105.448 14.446 105.854 14.838 105.854 15.314C105.854 15.79 105.448 16.196 104.986 16.196ZM50.1381 58.794L47.7721 62H46.1901L48.7241 58.626C48.3741 58.78 48.0101 58.85 47.6461 58.85C45.5461 58.85 44.1461 57.338 44.1461 55.322C44.1461 53.222 45.7281 51.696 47.8281 51.696C49.9281 51.696 51.5381 53.278 51.5381 55.336C51.5381 56.526 51.1881 57.38 50.1381 58.794ZM50.1381 55.322C50.1381 53.936 49.1861 52.928 47.8281 52.928C46.4841 52.928 45.5321 53.936 45.5321 55.322C45.5321 56.708 46.4701 57.688 47.8281 57.688C49.2001 57.688 50.1381 56.708 50.1381 55.322ZM54.3962 62.168C53.8502 62.168 53.3882 61.72 53.3882 61.188C53.3882 60.642 53.8502 60.194 54.3962 60.194C54.9282 60.194 55.3902 60.642 55.3902 61.188C55.3902 61.72 54.9282 62.168 54.3962 62.168ZM64.22 62L61.21 51.878H62.638L64.486 58.066C64.626 58.598 64.766 59.13 64.906 59.9C65.074 59.088 65.228 58.598 65.382 58.066L67.3 51.878H68.784L70.688 58.066C70.856 58.612 70.996 59.144 71.15 59.9C71.318 59.046 71.458 58.528 71.598 58.08L73.46 51.878H74.86L71.808 62H70.492L68.042 53.992L65.564 62H64.22ZM77.4864 61.986H76.1704V51.696H77.4864V56.204C77.9204 55.462 78.7464 54.958 79.8104 54.958C81.5604 54.958 82.4004 56.064 82.4004 57.814V62H81.0844V58.108C81.0844 56.722 80.4264 56.162 79.4464 56.162C78.1724 56.162 77.4864 57.086 77.4864 58.262V61.986ZM86.3751 62.168C84.9051 62.168 84.0371 61.342 84.0371 60.096C84.0371 58.836 84.9751 58.052 86.5851 57.926L88.7411 57.758V57.562C88.7411 56.414 88.0551 56.008 87.1311 56.008C86.0251 56.008 85.3951 56.498 85.3951 57.324H84.2471C84.2471 55.896 85.4231 54.958 87.1871 54.958C88.8811 54.958 90.0291 55.854 90.0291 57.702V62H88.9091L88.7691 60.894C88.4191 61.678 87.4811 62.168 86.3751 62.168ZM86.7531 61.146C87.9991 61.146 88.7551 60.334 88.7551 59.046V58.682L87.0051 58.822C85.8431 58.934 85.3671 59.382 85.3671 60.054C85.3671 60.782 85.8991 61.146 86.7531 61.146ZM93.8242 62H92.5082V56.26H91.1642V55.154H92.5082V53.012H93.8242V55.154H95.1682V56.26H93.8242V62ZM102.479 62.168C101.009 62.168 100.141 61.342 100.141 60.096C100.141 58.836 101.079 58.052 102.689 57.926L104.845 57.758V57.562C104.845 56.414 104.159 56.008 103.235 56.008C102.129 56.008 101.499 56.498 101.499 57.324H100.351C100.351 55.896 101.527 54.958 103.291 54.958C104.985 54.958 106.133 55.854 106.133 57.702V62H105.013L104.873 60.894C104.523 61.678 103.585 62.168 102.479 62.168ZM102.857 61.146C104.103 61.146 104.859 60.334 104.859 59.046V58.682L103.109 58.822C101.947 58.934 101.471 59.382 101.471 60.054C101.471 60.782 102.003 61.146 102.857 61.146ZM112.026 55.098V56.302H111.438C110.192 56.302 109.422 57.058 109.422 58.374V62H108.106V55.168H109.338L109.422 56.204C109.702 55.49 110.388 55.014 111.326 55.014C111.564 55.014 111.76 55.042 112.026 55.098ZM116.118 62.168C114.102 62.168 112.716 60.712 112.716 58.584C112.716 56.442 114.074 54.958 116.062 54.958C118.008 54.958 119.282 56.302 119.282 58.332V58.822L113.99 58.836C114.088 60.278 114.844 61.076 116.146 61.076C117.168 61.076 117.84 60.656 118.064 59.872H119.296C118.96 61.342 117.812 62.168 116.118 62.168ZM116.062 56.064C114.914 56.064 114.186 56.75 114.018 57.954H117.966C117.966 56.82 117.224 56.064 116.062 56.064ZM126.812 62H125.496V56.26H124.152V55.154H125.496V53.012H126.812V55.154H128.156V56.26H126.812V62ZM130.803 61.986H129.487V51.696H130.803V56.204C131.237 55.462 132.063 54.958 133.127 54.958C134.877 54.958 135.717 56.064 135.717 57.814V62H134.401V58.108C134.401 56.722 133.743 56.162 132.763 56.162C131.489 56.162 130.803 57.086 130.803 58.262V61.986ZM140.644 62.168C138.628 62.168 137.242 60.712 137.242 58.584C137.242 56.442 138.6 54.958 140.588 54.958C142.534 54.958 143.808 56.302 143.808 58.332V58.822L138.516 58.836C138.614 60.278 139.37 61.076 140.672 61.076C141.694 61.076 142.366 60.656 142.59 59.872H143.822C143.486 61.342 142.338 62.168 140.644 62.168ZM140.588 56.064C139.44 56.064 138.712 56.75 138.544 57.954H142.492C142.492 56.82 141.75 56.064 140.588 56.064ZM152.36 62.168C150.344 62.168 148.958 60.712 148.958 58.584C148.958 56.442 150.316 54.958 152.304 54.958C154.25 54.958 155.524 56.302 155.524 58.332V58.822L150.232 58.836C150.33 60.278 151.086 61.076 152.388 61.076C153.41 61.076 154.082 60.656 154.306 59.872H155.538C155.202 61.342 154.054 62.168 152.36 62.168ZM152.304 56.064C151.156 56.064 150.428 56.75 150.26 57.954H154.208C154.208 56.82 153.466 56.064 152.304 56.064ZM157.584 62H156.072L158.466 58.612L156.086 55.154H157.612L159.348 57.702L161.042 55.154H162.54L160.16 58.612L162.498 62H160.972L159.264 59.494L157.584 62ZM163.788 65.066V55.154H164.978L165.076 56.386C165.538 55.448 166.462 54.958 167.554 54.958C169.514 54.958 170.732 56.428 170.732 58.528C170.732 60.614 169.584 62.182 167.554 62.182C166.462 62.182 165.552 61.72 165.104 60.88V65.066H163.788ZM165.118 58.584C165.118 59.984 165.93 60.992 167.274 60.992C168.618 60.992 169.416 59.984 169.416 58.584C169.416 57.17 168.618 56.162 167.274 56.162C165.93 56.162 165.118 57.156 165.118 58.584ZM175.286 62.168C173.27 62.168 171.884 60.712 171.884 58.584C171.884 56.442 173.242 54.958 175.23 54.958C177.176 54.958 178.45 56.302 178.45 58.332V58.822L173.158 58.836C173.256 60.278 174.012 61.076 175.314 61.076C176.336 61.076 177.008 60.656 177.232 59.872H178.464C178.128 61.342 176.98 62.168 175.286 62.168ZM175.23 56.064C174.082 56.064 173.354 56.75 173.186 57.954H177.134C177.134 56.82 176.392 56.064 175.23 56.064ZM179.622 58.584C179.622 56.442 180.98 54.958 182.982 54.958C184.704 54.958 185.908 55.938 186.146 57.464H184.83C184.606 56.596 183.906 56.134 183.024 56.134C181.778 56.134 180.924 57.086 180.924 58.57C180.924 60.04 181.722 60.992 182.968 60.992C183.906 60.992 184.606 60.502 184.844 59.69H186.16C185.894 61.174 184.62 62.168 182.968 62.168C180.952 62.168 179.622 60.74 179.622 58.584ZM189.631 62H188.315V56.26H186.971V55.154H188.315V53.012H189.631V55.154H190.975V56.26H189.631V62ZM195.192 62.168C193.176 62.168 191.79 60.712 191.79 58.584C191.79 56.442 193.148 54.958 195.136 54.958C197.082 54.958 198.356 56.302 198.356 58.332V58.822L193.064 58.836C193.162 60.278 193.918 61.076 195.22 61.076C196.242 61.076 196.914 60.656 197.138 59.872H198.37C198.034 61.342 196.886 62.168 195.192 62.168ZM195.136 56.064C193.988 56.064 193.26 56.75 193.092 57.954H197.04C197.04 56.82 196.298 56.064 195.136 56.064ZM202.719 62.168C200.731 62.168 199.527 60.684 199.527 58.598C199.527 56.498 200.745 54.958 202.775 54.958C203.825 54.958 204.707 55.42 205.169 56.26V51.696H206.471V62H205.295L205.183 60.754C204.735 61.692 203.811 62.168 202.719 62.168ZM202.985 60.978C204.329 60.978 205.155 59.984 205.155 58.556C205.155 57.156 204.329 56.148 202.985 56.148C201.641 56.148 200.857 57.156 200.857 58.556C200.857 59.97 201.641 60.978 202.985 60.978ZM215.242 62.168C213.254 62.168 212.05 60.684 212.05 58.598C212.05 56.498 213.268 54.958 215.298 54.958C216.348 54.958 217.23 55.42 217.692 56.26V51.696H218.994V62H217.818L217.706 60.754C217.258 61.692 216.334 62.168 215.242 62.168ZM215.508 60.978C216.852 60.978 217.678 59.984 217.678 58.556C217.678 57.156 216.852 56.148 215.508 56.148C214.164 56.148 213.38 57.156 213.38 58.556C213.38 59.97 214.164 60.978 215.508 60.978ZM223.997 62.168C221.981 62.168 220.595 60.712 220.595 58.584C220.595 56.442 221.953 54.958 223.941 54.958C225.887 54.958 227.161 56.302 227.161 58.332V58.822L221.869 58.836C221.967 60.278 222.723 61.076 224.025 61.076C225.047 61.076 225.719 60.656 225.943 59.872H227.175C226.839 61.342 225.691 62.168 223.997 62.168ZM223.941 56.064C222.793 56.064 222.065 56.75 221.897 57.954H225.845C225.845 56.82 225.103 56.064 223.941 56.064ZM230.125 62H228.809V51.696H230.125V62ZM232.856 53.53C232.38 53.53 231.988 53.138 231.988 52.662C231.988 52.172 232.38 51.794 232.856 51.794C233.332 51.794 233.724 52.172 233.724 52.662C233.724 53.138 233.332 53.53 232.856 53.53ZM232.212 62V55.154H233.528V62H232.212ZM237.506 62L234.748 55.154H236.148L237.646 58.976C237.884 59.62 238.08 60.194 238.192 60.614C238.304 60.166 238.528 59.578 238.766 58.976L240.292 55.154H241.664L238.808 62H237.506ZM245.501 62.168C243.485 62.168 242.099 60.712 242.099 58.584C242.099 56.442 243.457 54.958 245.445 54.958C247.391 54.958 248.665 56.302 248.665 58.332V58.822L243.373 58.836C243.471 60.278 244.227 61.076 245.529 61.076C246.551 61.076 247.223 60.656 247.447 59.872H248.679C248.343 61.342 247.195 62.168 245.501 62.168ZM245.445 56.064C244.297 56.064 243.569 56.75 243.401 57.954H247.349C247.349 56.82 246.607 56.064 245.445 56.064ZM254.205 55.098V56.302H253.617C252.371 56.302 251.601 57.058 251.601 58.374V62H250.285V55.168H251.517L251.601 56.204C251.881 55.49 252.567 55.014 253.505 55.014C253.743 55.014 253.939 55.042 254.205 55.098ZM257.318 62.168C255.848 62.168 254.98 61.342 254.98 60.096C254.98 58.836 255.918 58.052 257.528 57.926L259.684 57.758V57.562C259.684 56.414 258.998 56.008 258.074 56.008C256.968 56.008 256.338 56.498 256.338 57.324H255.19C255.19 55.896 256.366 54.958 258.13 54.958C259.824 54.958 260.972 55.854 260.972 57.702V62H259.852L259.712 60.894C259.362 61.678 258.424 62.168 257.318 62.168ZM257.696 61.146C258.942 61.146 259.698 60.334 259.698 59.046V58.682L257.948 58.822C256.786 58.934 256.31 59.382 256.31 60.054C256.31 60.782 256.842 61.146 257.696 61.146ZM264.134 62H262.944V51.696H264.26V56.33C264.708 55.434 265.632 54.958 266.752 54.958C268.712 54.958 269.888 56.498 269.888 58.612C269.888 60.684 268.656 62.168 266.668 62.168C265.59 62.168 264.68 61.692 264.232 60.754L264.134 62ZM264.274 58.556C264.274 59.984 265.086 60.978 266.43 60.978C267.774 60.978 268.572 59.97 268.572 58.556C268.572 57.156 267.774 56.148 266.43 56.148C265.086 56.148 264.274 57.156 264.274 58.556ZM272.833 62H271.517V51.696H272.833V62ZM277.874 62.168C275.858 62.168 274.472 60.712 274.472 58.584C274.472 56.442 275.83 54.958 277.818 54.958C279.764 54.958 281.038 56.302 281.038 58.332V58.822L275.746 58.836C275.844 60.278 276.6 61.076 277.902 61.076C278.924 61.076 279.596 60.656 279.82 59.872H281.052C280.716 61.342 279.568 62.168 277.874 62.168ZM277.818 56.064C276.67 56.064 275.942 56.75 275.774 57.954H279.722C279.722 56.82 278.98 56.064 277.818 56.064ZM282.098 60.012H283.358C283.358 60.712 283.89 61.132 284.758 61.132C285.682 61.132 286.214 60.754 286.214 60.124C286.214 59.662 285.99 59.382 285.276 59.2L284.072 58.92C282.854 58.626 282.28 58.024 282.28 57.016C282.28 55.756 283.344 54.958 284.856 54.958C286.354 54.958 287.334 55.798 287.362 57.1H286.102C286.074 56.414 285.612 55.98 284.814 55.98C283.988 55.98 283.526 56.344 283.526 56.974C283.526 57.436 283.862 57.744 284.534 57.912L285.738 58.206C286.9 58.486 287.474 59.018 287.474 60.04C287.474 61.342 286.354 62.168 284.73 62.168C283.12 62.168 282.098 61.314 282.098 60.012ZM292.938 58.752V57.898H307.022V58.752H292.938ZM313.309 53.362C312.917 53.362 312.595 53.04 312.595 52.648C312.595 52.256 312.917 51.92 313.309 51.92C313.701 51.92 314.037 52.256 314.037 52.648C314.037 53.04 313.701 53.362 313.309 53.362ZM312.833 62V55.224H313.799V62H312.833ZM315.057 55.224H316.093V53.908C316.093 52.382 316.933 51.794 317.969 51.794C318.207 51.794 318.487 51.808 318.711 51.85V52.676H318.137C317.283 52.676 317.059 53.11 317.059 53.908V55.224H318.655V56.036H317.059V62H316.093V56.036H315.057V55.224ZM323.166 64.954V64.156H323.908C324.496 64.156 325.084 64.114 325.42 63.204L325.714 62.406L322.97 55.224H323.992L326.176 61.132L328.318 55.224H329.312L326.204 63.554C325.812 64.618 325.154 65.052 324.188 65.052C323.782 65.052 323.474 65.024 323.166 64.954ZM329.734 58.612C329.734 56.54 331.19 55.042 333.178 55.042C335.166 55.042 336.622 56.54 336.622 58.612C336.622 60.67 335.166 62.168 333.178 62.168C331.19 62.168 329.734 60.67 329.734 58.612ZM330.714 58.598C330.714 60.194 331.722 61.3 333.178 61.3C334.62 61.3 335.642 60.194 335.642 58.598C335.642 57.03 334.62 55.91 333.178 55.91C331.722 55.91 330.714 57.03 330.714 58.598ZM342.763 55.224H343.729V62H342.889L342.763 60.852C342.385 61.636 341.447 62.168 340.383 62.168C338.787 62.168 337.919 61.076 337.919 59.424V55.21H338.899V59.116C338.899 60.726 339.613 61.3 340.691 61.3C341.993 61.3 342.763 60.432 342.763 58.822V55.224ZM350.632 62H349.666V51.794H350.632V58.724L353.992 55.224H355.21L352.606 57.926L355.224 62H354.104L351.948 58.612L350.632 59.97V62ZM357.344 62H356.378V55.224H357.218L357.358 56.4C357.806 55.532 358.702 55.042 359.682 55.042C361.544 55.042 362.314 56.148 362.314 57.856V62H361.348V58.066C361.348 56.484 360.634 55.924 359.514 55.924C358.128 55.924 357.344 56.932 357.344 58.458V62ZM363.763 58.612C363.763 56.54 365.219 55.042 367.207 55.042C369.195 55.042 370.651 56.54 370.651 58.612C370.651 60.67 369.195 62.168 367.207 62.168C365.219 62.168 363.763 60.67 363.763 58.612ZM364.743 58.598C364.743 60.194 365.751 61.3 367.207 61.3C368.649 61.3 369.671 60.194 369.671 58.598C369.671 57.03 368.649 55.91 367.207 55.91C365.751 55.91 364.743 57.03 364.743 58.598ZM373.323 62L371.083 55.224H372.077L373.407 59.312C373.561 59.76 373.687 60.222 373.827 60.768C373.939 60.222 374.163 59.536 374.233 59.312L375.577 55.224H376.571L377.901 59.312C378.027 59.676 378.195 60.264 378.321 60.768C378.461 60.208 378.489 60.04 378.727 59.312L380.071 55.224H381.079L378.783 62H377.845L376.445 57.744C376.277 57.24 376.165 56.82 376.081 56.414C375.983 56.778 375.871 57.184 375.689 57.744L374.289 62H373.323ZM387.723 62H386.771V56.036H385.413V55.224H386.771V53.082H387.723V55.224H389.081V56.036H387.723V62ZM391.304 61.986H390.338V51.794H391.304V56.4C391.738 55.588 392.564 55.042 393.698 55.042C395.476 55.042 396.274 56.148 396.274 57.856V62H395.308V58.066C395.308 56.484 394.566 55.924 393.516 55.924C392.06 55.924 391.304 57.002 391.304 58.304V61.986ZM401.042 62.168C399.054 62.168 397.724 60.74 397.724 58.612C397.724 56.498 399.04 55.042 400.972 55.042C402.806 55.042 404.052 56.344 404.052 58.262V58.738H398.662C398.732 60.39 399.6 61.342 401.056 61.342C402.162 61.342 402.876 60.866 403.128 59.97H404.052C403.688 61.398 402.638 62.168 401.042 62.168ZM400.972 55.868C399.698 55.868 398.858 56.708 398.69 58.038H403.086C403.086 56.736 402.246 55.868 400.972 55.868ZM406.562 62H405.596V55.224H406.436L406.548 56.19C406.884 55.476 407.64 55.042 408.592 55.042C409.656 55.042 410.454 55.602 410.776 56.484C411.084 55.602 411.91 55.042 413.002 55.042C414.472 55.042 415.438 55.994 415.438 57.562V62H414.5V57.758C414.5 56.596 413.856 55.91 412.82 55.91C411.686 55.91 411.014 56.764 411.014 57.814V62H410.062V57.744C410.062 56.596 409.404 55.924 408.382 55.924C407.248 55.924 406.562 56.764 406.562 57.8V62ZM423.21 62.168C421.768 62.168 420.914 61.356 420.914 60.166C420.914 58.92 421.866 58.136 423.448 58.01L425.688 57.828V57.604C425.688 56.274 424.89 55.854 423.896 55.854C422.72 55.854 422.02 56.386 422.02 57.296H421.138C421.138 55.924 422.258 55.042 423.924 55.042C425.492 55.042 426.64 55.826 426.64 57.618V62H425.828L425.702 60.81C425.282 61.664 424.358 62.168 423.21 62.168ZM423.434 61.384C424.862 61.384 425.688 60.39 425.688 58.92V58.556L423.686 58.71C422.412 58.822 421.894 59.382 421.894 60.138C421.894 60.964 422.51 61.384 423.434 61.384ZM430.01 62H429.058V56.036H427.7V55.224H429.058V53.082H430.01V55.224H431.368V56.036H430.01V62ZM438.062 62H437.11V56.036H435.752V55.224H437.11V53.082H438.062V55.224H439.42V56.036H438.062V62ZM441.644 61.986H440.678V51.794H441.644V56.4C442.078 55.588 442.904 55.042 444.038 55.042C445.816 55.042 446.614 56.148 446.614 57.856V62H445.648V58.066C445.648 56.484 444.906 55.924 443.856 55.924C442.4 55.924 441.644 57.002 441.644 58.304V61.986ZM449.016 53.362C448.624 53.362 448.302 53.04 448.302 52.648C448.302 52.256 448.624 51.92 449.016 51.92C449.408 51.92 449.744 52.256 449.744 52.648C449.744 53.04 449.408 53.362 449.016 53.362ZM448.54 62V55.224H449.506V62H448.54ZM450.946 60.096H451.87C451.87 60.88 452.458 61.37 453.41 61.37C454.46 61.37 455.076 60.922 455.076 60.194C455.076 59.634 454.796 59.312 453.998 59.116L452.836 58.822C451.66 58.528 451.086 57.912 451.086 56.988C451.086 55.798 452.08 55.042 453.536 55.042C454.964 55.042 455.888 55.826 455.93 57.086H454.992C454.964 56.302 454.418 55.84 453.508 55.84C452.556 55.84 452.024 56.246 452.024 56.974C452.024 57.492 452.388 57.856 453.13 58.038L454.292 58.332C455.468 58.626 456 59.172 456 60.152C456 61.37 454.964 62.168 453.424 62.168C451.898 62.168 450.946 61.356 450.946 60.096ZM463.027 62H462.075V56.036H460.717V55.224H462.075V53.082H463.027V55.224H464.385V56.036H463.027V62ZM466.119 53.362C465.727 53.362 465.405 53.04 465.405 52.648C465.405 52.256 465.727 51.92 466.119 51.92C466.511 51.92 466.847 52.256 466.847 52.648C466.847 53.04 466.511 53.362 466.119 53.362ZM465.643 62V55.224H466.609V62H465.643ZM469.59 62H468.624V55.224H469.464L469.576 56.19C469.912 55.476 470.668 55.042 471.62 55.042C472.684 55.042 473.482 55.602 473.804 56.484C474.112 55.602 474.938 55.042 476.03 55.042C477.5 55.042 478.466 55.994 478.466 57.562V62H477.528V57.758C477.528 56.596 476.884 55.91 475.848 55.91C474.714 55.91 474.042 56.764 474.042 57.814V62H473.09V57.744C473.09 56.596 472.432 55.924 471.41 55.924C470.276 55.924 469.59 56.764 469.59 57.8V62ZM483.251 62.168C481.263 62.168 479.933 60.74 479.933 58.612C479.933 56.498 481.249 55.042 483.181 55.042C485.015 55.042 486.261 56.344 486.261 58.262V58.738H480.871C480.941 60.39 481.809 61.342 483.265 61.342C484.371 61.342 485.085 60.866 485.337 59.97H486.261C485.897 61.398 484.847 62.168 483.251 62.168ZM483.181 55.868C481.907 55.868 481.067 56.708 480.899 58.038H485.295C485.295 56.736 484.455 55.868 483.181 55.868ZM490.507 59.704H489.597V59.34C489.597 58.192 490.339 57.576 491.123 56.988C491.851 56.428 492.537 55.854 492.537 54.832C492.537 53.642 491.711 52.718 490.423 52.718C489.205 52.718 488.253 53.684 488.253 54.902H487.273C487.273 53.152 488.659 51.794 490.423 51.794C492.341 51.794 493.531 53.096 493.531 54.804C493.531 56.246 492.607 56.96 491.781 57.576C490.997 58.136 490.507 58.598 490.507 59.34V59.704ZM490.115 62.196C489.625 62.196 489.233 61.79 489.233 61.314C489.233 60.838 489.625 60.446 490.115 60.446C490.591 60.446 490.983 60.838 490.983 61.314C490.983 61.79 490.591 62.196 490.115 62.196ZM501.441 64.198H500.559C499.383 62.588 498.613 60.208 498.613 57.8C498.613 55.49 499.355 53.082 500.559 51.416H501.441C500.363 52.928 499.607 55.28 499.607 57.8C499.607 60.264 500.335 62.658 501.441 64.198ZM505.29 62.168C503.302 62.168 501.972 60.74 501.972 58.612C501.972 56.498 503.288 55.042 505.22 55.042C507.054 55.042 508.3 56.344 508.3 58.262V58.738H502.91C502.98 60.39 503.848 61.342 505.304 61.342C506.41 61.342 507.124 60.866 507.376 59.97H508.3C507.936 61.398 506.886 62.168 505.29 62.168ZM505.22 55.868C503.946 55.868 503.106 56.708 502.938 58.038H507.334C507.334 56.736 506.494 55.868 505.22 55.868ZM510.247 62.154C509.771 62.154 509.365 61.762 509.365 61.3C509.365 60.824 509.771 60.418 510.247 60.418C510.723 60.418 511.129 60.824 511.129 61.3C511.129 61.762 510.723 62.154 510.247 62.154ZM512.349 58.416C512.349 56.568 513.539 55.042 515.527 55.042C516.703 55.042 517.599 55.588 518.033 56.582L518.131 55.224H518.971V61.79C518.971 63.806 517.683 65.122 515.695 65.122C513.959 65.122 512.741 64.142 512.475 62.504H513.441C513.651 63.596 514.491 64.24 515.709 64.24C517.095 64.24 518.019 63.302 518.019 61.888V60.278C517.557 61.23 516.619 61.79 515.457 61.79C513.525 61.79 512.349 60.264 512.349 58.416ZM513.315 58.402C513.315 59.788 514.169 60.922 515.597 60.922C517.067 60.922 517.935 59.858 517.935 58.402C517.935 56.96 517.095 55.896 515.611 55.896C514.155 55.896 513.315 57.03 513.315 58.402ZM521.813 62.154C521.337 62.154 520.931 61.762 520.931 61.3C520.931 60.824 521.337 60.418 521.813 60.418C522.289 60.418 522.695 60.824 522.695 61.3C522.695 61.762 522.289 62.154 521.813 62.154ZM526.359 61.524C526.359 62.392 525.687 63.148 524.819 63.274V62.756C525.323 62.672 525.687 62.308 525.687 61.916C525.603 61.972 525.491 62.014 525.323 62.014C524.931 62.014 524.595 61.734 524.595 61.258C524.595 60.768 524.931 60.418 525.421 60.418C525.925 60.418 526.359 60.824 526.359 61.524ZM533.766 53.81C533.766 54.272 533.444 54.622 532.954 54.622C532.464 54.622 532.044 54.23 532.044 53.53C532.044 52.662 532.702 51.92 533.556 51.78V52.298C533.066 52.396 532.702 52.746 532.702 53.152C532.786 53.096 532.898 53.054 533.08 53.054C533.444 53.054 533.766 53.32 533.766 53.81ZM536.034 53.81C536.034 54.272 535.698 54.622 535.208 54.622C534.732 54.622 534.298 54.23 534.298 53.53C534.298 52.662 534.956 51.92 535.824 51.78V52.298C535.334 52.396 534.97 52.746 534.97 53.138C535.054 53.082 535.18 53.054 535.348 53.054C535.712 53.054 536.034 53.32 536.034 53.81ZM538.375 53.362C537.983 53.362 537.661 53.04 537.661 52.648C537.661 52.256 537.983 51.92 538.375 51.92C538.767 51.92 539.103 52.256 539.103 52.648C539.103 53.04 538.767 53.362 538.375 53.362ZM537.899 62V55.224H538.865V62H537.899ZM541.845 62H540.879V55.224H541.719L541.859 56.4C542.307 55.532 543.203 55.042 544.183 55.042C546.045 55.042 546.815 56.148 546.815 57.856V62H545.849V58.066C545.849 56.484 545.135 55.924 544.015 55.924C542.629 55.924 541.845 56.932 541.845 58.458V62ZM550.295 62H549.343V56.036H547.985V55.224H549.343V53.082H550.295V55.224H551.653V56.036H550.295V62ZM555.684 62.168C553.696 62.168 552.366 60.74 552.366 58.612C552.366 56.498 553.682 55.042 555.614 55.042C557.448 55.042 558.694 56.344 558.694 58.262V58.738H553.304C553.374 60.39 554.242 61.342 555.698 61.342C556.804 61.342 557.518 60.866 557.77 59.97H558.694C558.33 61.398 557.28 62.168 555.684 62.168ZM555.614 55.868C554.34 55.868 553.5 56.708 553.332 58.038H557.728C557.728 56.736 556.888 55.868 555.614 55.868ZM559.777 58.416C559.777 56.568 560.967 55.042 562.955 55.042C564.131 55.042 565.027 55.588 565.461 56.582L565.559 55.224H566.399V61.79C566.399 63.806 565.111 65.122 563.123 65.122C561.387 65.122 560.169 64.142 559.903 62.504H560.869C561.079 63.596 561.919 64.24 563.137 64.24C564.523 64.24 565.447 63.302 565.447 61.888V60.278C564.985 61.23 564.047 61.79 562.885 61.79C560.953 61.79 559.777 60.264 559.777 58.416ZM560.743 58.402C560.743 59.788 561.597 60.922 563.025 60.922C564.495 60.922 565.363 59.858 565.363 58.402C565.363 56.96 564.523 55.896 563.039 55.896C561.583 55.896 560.743 57.03 560.743 58.402ZM571.957 55.14V56.008H571.425C570.179 56.008 569.381 56.848 569.381 58.136V62H568.415V55.224H569.325L569.395 56.274C569.661 55.546 570.375 55.07 571.327 55.07C571.537 55.07 571.719 55.084 571.957 55.14ZM574.913 62.168C573.471 62.168 572.617 61.356 572.617 60.166C572.617 58.92 573.569 58.136 575.151 58.01L577.391 57.828V57.604C577.391 56.274 576.593 55.854 575.599 55.854C574.423 55.854 573.723 56.386 573.723 57.296H572.841C572.841 55.924 573.961 55.042 575.627 55.042C577.195 55.042 578.343 55.826 578.343 57.618V62H577.531L577.405 60.81C576.985 61.664 576.061 62.168 574.913 62.168ZM575.137 61.384C576.565 61.384 577.391 60.39 577.391 58.92V58.556L575.389 58.71C574.115 58.822 573.597 59.382 573.597 60.138C573.597 60.964 574.213 61.384 575.137 61.384ZM581.713 62H580.761V56.036H579.403V55.224H580.761V53.082H581.713V55.224H583.071V56.036H581.713V62ZM587.102 62.168C585.114 62.168 583.784 60.74 583.784 58.612C583.784 56.498 585.1 55.042 587.032 55.042C588.866 55.042 590.112 56.344 590.112 58.262V58.738H584.722C584.792 60.39 585.66 61.342 587.116 61.342C588.222 61.342 588.936 60.866 589.188 59.97H590.112C589.748 61.398 588.698 62.168 587.102 62.168ZM587.032 55.868C585.758 55.868 584.918 56.708 584.75 58.038H589.146C589.146 56.736 588.306 55.868 587.032 55.868ZM594.317 62.168C592.343 62.168 591.181 60.656 591.181 58.626C591.181 56.582 592.343 55.042 594.359 55.042C595.479 55.042 596.375 55.532 596.851 56.512V51.794H597.817V62H596.977L596.879 60.614C596.403 61.664 595.451 62.168 594.317 62.168ZM594.485 61.286C595.969 61.286 596.837 60.166 596.837 58.598C596.837 57.044 595.969 55.91 594.485 55.91C593.015 55.91 592.161 57.044 592.161 58.598C592.161 60.166 593.015 61.286 594.485 61.286ZM603.239 58.626C603.239 56.498 604.541 55.042 606.515 55.042C608.083 55.042 609.231 55.952 609.497 57.352H608.531C608.279 56.414 607.467 55.896 606.529 55.896C605.157 55.896 604.191 56.946 604.191 58.612C604.191 60.222 605.087 61.3 606.459 61.3C607.467 61.3 608.279 60.74 608.545 59.872H609.525C609.203 61.258 607.999 62.168 606.459 62.168C604.541 62.168 603.239 60.754 603.239 58.626ZM612.935 62.168C611.493 62.168 610.639 61.356 610.639 60.166C610.639 58.92 611.591 58.136 613.173 58.01L615.413 57.828V57.604C615.413 56.274 614.615 55.854 613.621 55.854C612.445 55.854 611.745 56.386 611.745 57.296H610.863C610.863 55.924 611.983 55.042 613.649 55.042C615.217 55.042 616.365 55.826 616.365 57.618V62H615.553L615.427 60.81C615.007 61.664 614.083 62.168 612.935 62.168ZM613.159 61.384C614.587 61.384 615.413 60.39 615.413 58.92V58.556L613.411 58.71C612.137 58.822 611.619 59.382 611.619 60.138C611.619 60.964 612.235 61.384 613.159 61.384ZM619.269 62H618.303V55.224H619.143L619.255 56.19C619.591 55.476 620.347 55.042 621.299 55.042C622.363 55.042 623.161 55.602 623.483 56.484C623.791 55.602 624.617 55.042 625.709 55.042C627.179 55.042 628.145 55.994 628.145 57.562V62H627.207V57.758C627.207 56.596 626.563 55.91 625.527 55.91C624.393 55.91 623.721 56.764 623.721 57.814V62H622.769V57.744C622.769 56.596 622.111 55.924 621.089 55.924C619.955 55.924 619.269 56.764 619.269 57.8V62ZM630.088 64.954V55.224H630.928L631.026 56.596C631.502 55.546 632.454 55.042 633.588 55.042C635.548 55.042 636.724 56.54 636.724 58.584C636.724 60.628 635.59 62.168 633.588 62.168C632.44 62.168 631.53 61.678 631.054 60.698V64.954H630.088ZM631.068 58.612C631.068 60.166 631.936 61.3 633.42 61.3C634.89 61.3 635.744 60.166 635.744 58.612C635.744 57.044 634.89 55.924 633.42 55.924C631.936 55.924 631.068 57.044 631.068 58.612ZM640.21 62.168C638.768 62.168 637.914 61.356 637.914 60.166C637.914 58.92 638.866 58.136 640.448 58.01L642.688 57.828V57.604C642.688 56.274 641.89 55.854 640.896 55.854C639.72 55.854 639.02 56.386 639.02 57.296H638.138C638.138 55.924 639.258 55.042 640.924 55.042C642.492 55.042 643.64 55.826 643.64 57.618V62H642.828L642.702 60.81C642.282 61.664 641.358 62.168 640.21 62.168ZM640.434 61.384C641.862 61.384 642.688 60.39 642.688 58.92V58.556L640.686 58.71C639.412 58.822 638.894 59.382 638.894 60.138C638.894 60.964 639.51 61.384 640.434 61.384ZM646.055 53.362C645.663 53.362 645.341 53.04 645.341 52.648C645.341 52.256 645.663 51.92 646.055 51.92C646.447 51.92 646.783 52.256 646.783 52.648C646.783 53.04 646.447 53.362 646.055 53.362ZM645.579 62V55.224H646.545V62H645.579ZM648.097 58.416C648.097 56.568 649.287 55.042 651.275 55.042C652.451 55.042 653.347 55.588 653.781 56.582L653.879 55.224H654.719V61.79C654.719 63.806 653.431 65.122 651.443 65.122C649.707 65.122 648.489 64.142 648.223 62.504H649.189C649.399 63.596 650.239 64.24 651.457 64.24C652.843 64.24 653.767 63.302 653.767 61.888V60.278C653.305 61.23 652.367 61.79 651.205 61.79C649.273 61.79 648.097 60.264 648.097 58.416ZM649.063 58.402C649.063 59.788 649.917 60.922 651.345 60.922C652.815 60.922 653.683 59.858 653.683 58.402C653.683 56.96 652.843 55.896 651.359 55.896C649.903 55.896 649.063 57.03 649.063 58.402ZM657.701 62H656.735V55.224H657.575L657.715 56.4C658.163 55.532 659.059 55.042 660.039 55.042C661.901 55.042 662.671 56.148 662.671 57.856V62H661.705V58.066C661.705 56.484 660.991 55.924 659.871 55.924C658.485 55.924 657.701 56.932 657.701 58.458V62ZM63.436 83L61.196 76.224H62.19L63.52 80.312C63.674 80.76 63.8 81.222 63.94 81.768C64.052 81.222 64.276 80.536 64.346 80.312L65.69 76.224H66.684L68.014 80.312C68.14 80.676 68.308 81.264 68.434 81.768C68.574 81.208 68.602 81.04 68.84 80.312L70.184 76.224H71.192L68.896 83H67.958L66.558 78.744C66.39 78.24 66.278 77.82 66.194 77.414C66.096 77.778 65.984 78.184 65.802 78.744L64.402 83H63.436ZM72.8746 74.362C72.4826 74.362 72.1606 74.04 72.1606 73.648C72.1606 73.256 72.4826 72.92 72.8746 72.92C73.2666 72.92 73.6026 73.256 73.6026 73.648C73.6026 74.04 73.2666 74.362 72.8746 74.362ZM72.3986 83V76.224H73.3646V83H72.3986ZM76.9331 83H75.9811V77.036H74.6231V76.224H75.9811V74.082H76.9331V76.224H78.2911V77.036H76.9331V83ZM80.515 82.986H79.549V72.794H80.515V77.4C80.949 76.588 81.775 76.042 82.909 76.042C84.687 76.042 85.485 77.148 85.485 78.856V83H84.519V79.066C84.519 77.484 83.777 76.924 82.727 76.924C81.271 76.924 80.515 78.002 80.515 79.304V82.986ZM92.8192 73.886H90.7752V72.976H93.7852V83H92.8192V73.886ZM100.818 82.986H99.8518V72.794H100.818V77.4C101.252 76.588 102.078 76.042 103.212 76.042C104.99 76.042 105.788 77.148 105.788 78.856V83H104.822V79.066C104.822 77.484 104.08 76.924 103.03 76.924C101.574 76.924 100.818 78.002 100.818 79.304V82.986ZM110.555 83.168C108.567 83.168 107.237 81.74 107.237 79.612C107.237 77.498 108.553 76.042 110.485 76.042C112.319 76.042 113.565 77.344 113.565 79.262V79.738H108.175C108.245 81.39 109.113 82.342 110.569 82.342C111.675 82.342 112.389 81.866 112.641 80.97H113.565C113.201 82.398 112.151 83.168 110.555 83.168ZM110.485 76.868C109.211 76.868 108.371 77.708 108.203 79.038H112.599C112.599 77.736 111.759 76.868 110.485 76.868ZM118.652 76.14V77.008H118.12C116.874 77.008 116.076 77.848 116.076 79.136V83H115.11V76.224H116.02L116.09 77.274C116.356 76.546 117.07 76.07 118.022 76.07C118.232 76.07 118.414 76.084 118.652 76.14ZM119.2 79.612C119.2 77.54 120.656 76.042 122.644 76.042C124.632 76.042 126.088 77.54 126.088 79.612C126.088 81.67 124.632 83.168 122.644 83.168C120.656 83.168 119.2 81.67 119.2 79.612ZM120.18 79.598C120.18 81.194 121.188 82.3 122.644 82.3C124.086 82.3 125.108 81.194 125.108 79.598C125.108 78.03 124.086 76.91 122.644 76.91C121.188 76.91 120.18 78.03 120.18 79.598ZM133.406 83L130.634 76.224H131.67L133.42 80.592C133.602 81.082 133.784 81.544 133.91 81.992C134.036 81.53 134.218 81.082 134.414 80.592L136.192 76.224H137.186L134.372 83H133.406ZM138.8 74.362C138.408 74.362 138.086 74.04 138.086 73.648C138.086 73.256 138.408 72.92 138.8 72.92C139.192 72.92 139.528 73.256 139.528 73.648C139.528 74.04 139.192 74.362 138.8 74.362ZM138.324 83V76.224H139.29V83H138.324ZM143.965 83.168C141.991 83.168 140.829 81.656 140.829 79.626C140.829 77.582 141.991 76.042 144.007 76.042C145.127 76.042 146.023 76.532 146.499 77.512V72.794H147.465V83H146.625L146.527 81.614C146.051 82.664 145.099 83.168 143.965 83.168ZM144.133 82.286C145.617 82.286 146.485 81.166 146.485 79.598C146.485 78.044 145.617 76.91 144.133 76.91C142.663 76.91 141.809 78.044 141.809 79.598C141.809 81.166 142.663 82.286 144.133 82.286ZM152.323 83.168C150.335 83.168 149.005 81.74 149.005 79.612C149.005 77.498 150.321 76.042 152.253 76.042C154.087 76.042 155.333 77.344 155.333 79.262V79.738H149.943C150.013 81.39 150.881 82.342 152.337 82.342C153.443 82.342 154.157 81.866 154.409 80.97H155.333C154.969 82.398 153.919 83.168 152.323 83.168ZM152.253 76.868C150.979 76.868 150.139 77.708 149.971 79.038H154.367C154.367 77.736 153.527 76.868 152.253 76.868ZM156.401 79.612C156.401 77.54 157.857 76.042 159.845 76.042C161.833 76.042 163.289 77.54 163.289 79.612C163.289 81.67 161.833 83.168 159.845 83.168C157.857 83.168 156.401 81.67 156.401 79.612ZM157.381 79.598C157.381 81.194 158.389 82.3 159.845 82.3C161.287 82.3 162.309 81.194 162.309 79.598C162.309 78.03 161.287 76.91 159.845 76.91C158.389 76.91 157.381 78.03 157.381 79.598ZM165.76 73.872C165.76 74.754 165.116 75.496 164.248 75.622V75.104C164.738 75.006 165.102 74.656 165.102 74.264C165.018 74.32 164.892 74.348 164.724 74.348C164.36 74.348 164.038 74.082 164.038 73.606C164.038 73.13 164.374 72.78 164.864 72.78C165.34 72.78 165.76 73.186 165.76 73.872ZM168.028 73.872C168.028 74.754 167.37 75.496 166.516 75.622V75.104C167.006 75.006 167.37 74.656 167.37 74.25C167.286 74.306 167.174 74.348 166.992 74.348C166.628 74.348 166.292 74.082 166.292 73.606C166.292 73.13 166.628 72.78 167.118 72.78C167.608 72.78 168.028 73.186 168.028 73.872ZM169.767 85.198H168.885C169.991 83.658 170.733 81.264 170.733 78.8C170.733 76.28 169.963 73.928 168.885 72.416H169.767C170.985 74.082 171.713 76.49 171.713 78.8C171.713 81.208 170.943 83.588 169.767 85.198Z" fill="#0D2B4C"/>
</svg>
