<svg width="85" height="22" viewBox="0 0 85 22" fill="none" xmlns="http://www.w3.org/2000/svg">
<rect y="7.66797" width="6.66694" height="6.66694" rx="3.33347" fill="#0D2B4C"/>
<rect x="15.334" width="6.66694" height="6.66694" rx="3.33347" fill="#0D2B4C"/>
<rect width="6.66694" height="6.66694" rx="3.33347" fill="#0D2B4C"/>
<rect x="15.334" y="15.334" width="6.66694" height="6.66694" rx="3.33347" fill="#0D2B4C"/>
<rect x="7.66797" y="7.66797" width="6.66694" height="6.66694" rx="3.33347" fill="#0D2B4C"/>
<rect y="15.334" width="6.66694" height="6.66694" rx="3.33347" fill="#0D2B4C"/>
<path d="M78.3648 15.5868H76.6982L80.0064 6.42676H81.6479L84.9561 15.5868H83.2644L82.5251 13.4691H79.1042L78.3648 15.5868ZM80.6204 9.15849L79.5803 12.1158H82.0615L81.0089 9.15849C80.9337 8.9204 80.846 8.64472 80.8209 8.45676C80.7833 8.63219 80.7081 8.90787 80.6204 9.15849Z" fill="#0D2B4C"/>
<path d="M66.2729 15.5868H64.6689V6.42676H68.1651C70.2452 6.42676 71.4607 7.47935 71.4607 9.28379C71.4607 10.5118 70.8843 11.389 69.8066 11.8276L71.5484 15.5868H69.7941L68.2402 12.1659H66.2729V15.5868ZM66.2729 7.85528V10.7499H68.1651C69.1801 10.7499 69.7815 10.2111 69.7815 9.28379C69.7815 8.36904 69.1801 7.85528 68.1651 7.85528H66.2729Z" fill="#0D2B4C"/>
<path d="M58.6656 11.0003C58.6656 13.7822 56.8361 15.737 54.2046 15.737C51.5857 15.737 49.7812 13.7947 49.7812 11.0003C49.7812 8.21849 51.5982 6.26367 54.2172 6.26367C56.8361 6.26367 58.6656 8.20596 58.6656 11.0003ZM56.974 11.0003C56.974 9.04552 55.8963 7.80497 54.2172 7.80497C52.538 7.80497 51.4604 9.04552 51.4604 11.0003C51.4604 12.9552 52.538 14.1957 54.2172 14.1957C55.8963 14.1957 56.974 12.9301 56.974 11.0003Z" fill="#0D2B4C"/>
<path d="M39.6049 6.42676V11.2386L43.3141 6.42676H45.2062L42.1738 10.3364L45.2438 15.5868H43.3892L41.1212 11.6897L39.6049 13.632V15.5868H38.001V6.42676H39.6049Z" fill="#0D2B4C"/>
</svg>
